<svg width="26" height="34" viewBox="0 0 26 34" fill="none" xmlns="http://www.w3.org/2000/svg">
<path fill-rule="evenodd" clip-rule="evenodd" d="M13.3199 12.28C12.2266 12.28 10.5233 11.0067 8.75328 11.0067C6.39994 11.0067 4.24661 12.445 3.03328 14.555C0.593276 18.7917 2.40494 25.0517 4.78494 28.495C5.95328 30.1717 7.32994 32.0584 9.15661 31.9984C10.9083 31.9234 11.5666 30.86 13.6933 30.86C15.8049 30.86 16.4033 31.9984 18.2599 31.9534C20.1466 31.9234 21.3449 30.2467 22.4966 28.555C23.8299 26.6084 24.3833 24.7217 24.4133 24.6167C24.3683 24.6017 20.7449 23.21 20.6999 19.0167C20.6699 15.5134 23.5599 13.8367 23.6949 13.7617C22.0483 11.3517 19.5183 11.0817 18.6349 11.0217C16.3283 10.8417 14.3983 12.28 13.3199 12.28V12.28Z" stroke="#013024" stroke-width="2.5" stroke-linecap="round" stroke-linejoin="round"/>
<path d="M16.751 1.92392C18.1993 1.38472 19.1467 2.17972 18.867 3.69962C18.5874 5.21951 17.1866 6.88873 15.7384 7.42793C14.2901 7.96713 13.3427 7.17213 13.6223 5.65224C13.902 4.13235 15.3027 2.46312 16.751 1.92392" stroke="#013024" stroke-width="2.5" stroke-linecap="round" stroke-linejoin="round"/>
</svg>
