<svg width="22" height="34" viewBox="0 0 22 34" fill="none" xmlns="http://www.w3.org/2000/svg">
<path fill-rule="evenodd" clip-rule="evenodd" d="M13.4999 20.3333H18.0828C18.4652 20.3333 18.7985 20.0731 18.8913 19.7021L20.1413 14.7021C20.2035 14.4532 20.1476 14.1894 19.9897 13.9872C19.8318 13.7849 19.5894 13.6667 19.3328 13.6667H13.4999V10.3333C13.4999 9.41286 14.2461 8.66667 15.1666 8.66667H19.3333C19.7935 8.66667 20.1666 8.29357 20.1666 7.83333V2.83333C20.1666 2.3731 19.7935 2 19.3333 2H15.1666C10.5642 2 6.83325 5.73096 6.83325 10.3333V13.6667H2.66659C2.20635 13.6667 1.83325 14.0398 1.83325 14.5V19.5C1.83325 19.9602 2.20635 20.3333 2.66659 20.3333H6.83325V31.1667C6.83325 31.6269 7.20635 32 7.66659 32H12.6666C13.1268 32 13.4999 31.6269 13.4999 31.1667V20.3333Z" stroke="#013024" stroke-width="2.5" stroke-linecap="round" stroke-linejoin="round"/>
</svg>
