<svg width="122" height="122" viewBox="0 0 122 122" fill="none" xmlns="http://www.w3.org/2000/svg">
<path d="M93.5137 84.1697L106.019 96.6749" stroke="#323232" stroke-width="5" stroke-linecap="round" stroke-linejoin="round"/>
<path d="M106.019 84.1697L93.5137 96.6749" stroke="#323232" stroke-width="5" stroke-linecap="round" stroke-linejoin="round"/>
<path d="M63.501 61.3352V45.9938" stroke="#323232" stroke-width="5" stroke-linecap="round" stroke-linejoin="round"/>
<path d="M63.5012 79.3877C63.2872 79.3876 63.0821 79.4733 62.9317 79.6256C62.7813 79.7779 62.6982 79.984 62.7009 80.198C62.7035 80.6406 63.0587 81.0002 63.5012 81.0083C63.9487 81.0083 64.3115 80.6455 64.3115 80.198C64.3115 79.7505 63.9487 79.3877 63.5012 79.3877" stroke="#323232" stroke-width="5" stroke-linecap="round" stroke-linejoin="round"/>
<path d="M103.748 68.5932L80.1032 27.9863C76.6536 22.0883 70.3339 18.4633 63.5013 18.4633C56.6686 18.4633 50.3489 22.0883 46.8993 27.9863L18.3875 76.8966C15.1928 82.3924 15.1872 89.1785 18.3729 94.6795C21.5586 100.18 27.4471 103.553 33.8039 103.518H78.6876" stroke="#323232" stroke-width="5" stroke-linecap="round" stroke-linejoin="round"/>
</svg>
