<svg width="76" height="76" viewBox="0 0 76 76" fill="none" xmlns="http://www.w3.org/2000/svg">
<path d="M40.1544 1.46336C41.9929 0.303042 44.4019 0.649282 45.839 2.28064C46.3919 2.90821 47.1112 3.36633 47.9136 3.60196C48.7161 3.83758 49.5689 3.84106 50.3733 3.612C52.4641 3.01664 54.6781 4.02768 55.5973 5.99776C55.9509 6.75564 56.512 7.39785 57.2155 7.85001C57.9191 8.30217 58.7363 8.54578 59.5726 8.55264C61.7466 8.5704 63.5859 10.1642 63.9129 12.3136C64.0387 13.1404 64.3962 13.9147 64.9438 14.5467C65.4915 15.1788 66.207 15.6428 67.0075 15.885C69.0885 16.5146 70.4042 18.5619 70.1125 20.7163C70.0002 21.5451 70.125 22.3887 70.4724 23.1494C70.8199 23.9102 71.3757 24.557 72.0755 25.0149C73.8947 26.2053 74.5805 28.5403 73.6936 30.5253C73.3524 31.2888 73.2345 32.1334 73.3535 32.9612C73.4725 33.789 73.8236 34.5662 74.3661 35.2027C75.7763 36.8574 75.7763 39.291 74.3661 40.9458C73.8236 41.5823 73.4725 42.3594 73.3535 43.1872C73.2345 44.0151 73.3524 44.8596 73.6936 45.6232C74.5805 47.6082 73.8949 49.9434 72.0755 51.1336C71.3757 51.5915 70.8199 52.2383 70.4724 52.999C70.125 53.7598 70.0002 54.6034 70.1125 55.4322C70.4043 57.5866 69.0885 59.6339 67.0075 60.2635C66.207 60.5057 65.4915 60.9697 64.9438 61.6017C64.3961 62.2338 64.0387 63.0081 63.9129 63.8349C63.5859 65.9842 61.7466 67.5779 59.5726 67.5958C58.7363 67.6027 57.9191 67.8463 57.2155 68.2984C56.5119 68.7506 55.9509 69.3928 55.5973 70.1507C54.6779 72.1208 52.4641 73.1318 50.3733 72.5365C49.5689 72.3075 48.7161 72.311 47.9137 72.5466C47.1112 72.7822 46.3919 73.2403 45.839 73.8678C44.4019 75.4992 41.9929 75.8456 40.1544 74.6851C39.4471 74.2387 38.6279 74.0018 37.7916 74.0018C36.9553 74.0018 36.136 74.2387 35.4288 74.6851C33.5902 75.8454 31.1813 75.499 29.7441 73.8678C29.1913 73.2403 28.472 72.7822 27.6695 72.5465C26.8671 72.3109 26.0143 72.3074 25.2099 72.5365C23.119 73.1318 20.9051 72.1208 19.9859 70.1507C19.6323 69.3928 19.0712 68.7506 18.3676 68.2985C17.6641 67.8463 16.8468 67.6027 16.0105 67.5958C13.8366 67.5781 11.9973 65.9843 11.6702 63.8349C11.5444 63.0081 11.187 62.2338 10.6393 61.6018C10.0917 60.9697 9.37615 60.5057 8.57566 60.2635C6.4947 59.6339 5.17902 57.5866 5.4707 55.4322C5.58295 54.6034 5.45814 53.7598 5.11073 52.999C4.76331 52.2383 4.2075 51.5915 3.50766 51.1336C1.68846 49.9432 1.0027 47.6082 1.88958 45.6232C2.23077 44.8596 2.34868 44.0151 2.22966 43.1872C2.11065 42.3594 1.75958 41.5823 1.2171 40.9458C-0.193136 39.291 -0.193136 36.8573 1.2171 35.2027C1.75958 34.5662 2.11065 33.789 2.22966 32.9612C2.34868 32.1334 2.23077 31.2888 1.88958 30.5253C1.0027 28.5403 1.6883 26.2051 3.50766 25.0149C4.2075 24.557 4.76331 23.9102 5.11073 23.1494C5.45814 22.3887 5.58295 21.5451 5.4707 20.7163C5.17886 18.5619 6.4947 16.5146 8.57566 15.885C9.37616 15.6428 10.0917 15.1788 10.6394 14.5468C11.187 13.9147 11.5445 13.1404 11.6702 12.3136C11.9973 10.1643 13.8366 8.57056 16.0105 8.55264C16.8468 8.54582 17.6641 8.30222 18.3677 7.85006C19.0712 7.39789 19.6323 6.75567 19.9859 5.99776C20.9053 4.02768 23.119 3.01664 25.2099 3.612C26.0143 3.84104 26.8671 3.83755 27.6695 3.60193C28.472 3.36631 29.1913 2.90819 29.7441 2.28064C31.1813 0.649282 33.5902 0.303042 35.4288 1.46336C36.136 1.90975 36.9553 2.14666 37.7916 2.14666C38.6279 2.14666 39.4471 1.90975 40.1544 1.46336Z" fill="#66B2A7"/>
<path d="M14.1524 32.3758V37.529H20.3876V40.6206H14.1524V46.8043H10.5967V29.284H21.7789V32.3758H14.1524ZM24.278 29.284H31.08C35.2026 29.284 37.2637 31.208 37.2637 35.0554C37.2637 37.34 36.4047 39.0232 34.6872 40.1053L37.1864 46.8043H33.2959L31.2604 40.9298H27.8335V46.8043H24.2778V29.284H24.278ZM31.1316 37.8896C31.9388 37.8896 32.5572 37.6365 32.9866 37.1296C33.4157 36.623 33.6308 35.9403 33.6308 35.0811C33.6308 34.2224 33.4074 33.5482 32.9608 33.0586C32.5141 32.569 31.8872 32.3243 31.08 32.3243H27.8336V37.8896H31.1316ZM43.8079 32.3758V36.4725H50.0432V39.5126H43.8079V43.7123H51.5892V46.8042H40.2524V29.284H51.5892V32.3758H43.8079ZM58.0815 32.3758V36.4725H64.3168V39.5126H58.0815V43.7123H65.8628V46.8042H54.526V29.284H65.8628V32.3758H58.0815Z" fill="white"/>
</svg>
