<svg width="80" height="79" viewBox="0 0 80 79" fill="none" xmlns="http://www.w3.org/2000/svg">
<path d="M56.2386 58.8827C53.7112 61.4115 26.9085 73.5525 6.71592 78.5247C5.81078 78.7496 4.86289 78.7365 3.96427 78.4869C3.06566 78.2373 2.24686 77.7595 1.58738 77.1C0.9279 76.4406 0.450151 75.6218 0.200521 74.7232C-0.0491093 73.8245 -0.0621382 72.8766 0.162699 71.9715C5.1349 51.779 17.2773 24.9776 19.8047 22.4488L56.2386 58.8827Z" fill="#F0C419"/>
<path d="M56.2294 58.8821C58.877 56.2345 52.8673 45.9321 42.8063 35.8712C32.7454 25.8102 22.443 19.8005 19.7954 22.4481C17.1478 25.0957 23.1575 35.3981 33.2185 45.4591C43.2794 55.52 53.5818 61.5297 56.2294 58.8821Z" fill="#D25627"/>
<path d="M14.0515 67.3478C15.5492 67.3478 16.7633 66.1337 16.7633 64.6359C16.7633 63.1382 15.5492 61.9241 14.0515 61.9241C12.5537 61.9241 11.3396 63.1382 11.3396 64.6359C11.3396 66.1337 12.5537 67.3478 14.0515 67.3478Z" fill="#955BA5"/>
<path d="M31.3096 35.3112C31.0412 35.3114 30.7788 35.2319 30.5556 35.0829C30.3323 34.9338 30.1584 34.7218 30.0557 34.4738C29.9531 34.2258 29.9263 33.9529 29.9789 33.6897C30.0314 33.4265 30.161 33.1848 30.351 32.9952L38.9801 24.3674C43.6215 19.7247 44.2127 16.1762 40.8988 12.861C40.2142 12.0597 39.3389 11.4437 38.3536 11.0697C37.3683 10.6958 36.3046 10.576 35.2608 10.7213C33.7648 11.0381 32.3925 11.7812 31.3096 12.861C31.0539 13.108 30.7114 13.2447 30.3559 13.2416C30.0003 13.2385 29.6603 13.0959 29.4089 12.8445C29.1575 12.5931 29.0149 12.253 29.0118 11.8975C29.0087 11.542 29.1454 11.1994 29.3923 10.9437C30.8663 9.46712 32.7447 8.46025 34.7903 8.05015C36.2635 7.8176 37.7716 7.96089 39.1746 8.46673C40.5776 8.97257 41.8302 9.82458 42.8161 10.9437C47.269 15.3966 46.6235 20.5586 40.8974 26.2847L32.271 34.9139C32.1448 35.0401 31.9949 35.1402 31.8299 35.2084C31.665 35.2765 31.4881 35.3115 31.3096 35.3112Z" fill="#955BA5"/>
<path d="M66.7849 49.6922C66.5168 49.6921 66.2547 49.6126 66.0318 49.4636C65.8088 49.3146 65.6351 49.1028 65.5325 48.8551C65.4299 48.6074 65.403 48.3348 65.4553 48.0718C65.5076 47.8088 65.6367 47.5673 65.8263 47.3776C66.508 46.7788 67.0541 46.0414 67.4283 45.2147C67.8024 44.3881 67.9959 43.4911 67.9959 42.5837C67.9959 41.6763 67.8024 40.7794 67.4283 39.9527C67.0541 39.1261 66.508 38.3887 65.8263 37.7898C65.1423 36.9605 64.2388 36.3402 63.2191 36C62.1993 35.6598 61.1044 35.6132 60.0595 35.8658C57.8471 36.6292 55.8702 37.9526 54.3212 39.7071L46.6507 47.3776C46.395 47.6246 46.0525 47.7613 45.6969 47.7582C45.3414 47.7551 45.0013 47.6125 44.7499 47.3611C44.4985 47.1097 44.3559 46.7696 44.3528 46.4141C44.3497 46.0586 44.4864 45.7161 44.7334 45.4603L52.4039 37.7898C54.2862 35.689 56.6886 34.1209 59.3693 33.2434C60.8716 32.8587 62.4514 32.9009 63.9309 33.3654C65.4104 33.8299 66.7308 34.6982 67.7436 35.8725C73.0412 41.1688 70.2371 46.8027 67.7436 49.2963C67.618 49.4225 67.4686 49.5225 67.304 49.5905C67.1394 49.6584 66.963 49.693 66.7849 49.6922Z" fill="#FF5364"/>
<path d="M49.528 24.7634C49.2602 24.7633 48.9984 24.684 48.7756 24.5353C48.5529 24.3867 48.3791 24.1754 48.2763 23.9281C48.1735 23.6808 48.1462 23.4086 48.1978 23.1458C48.2495 22.883 48.3779 22.6415 48.5667 22.4515C48.9219 22.0936 57.1931 13.5878 50.3863 5.07932C50.2642 4.94167 50.1714 4.78062 50.1136 4.60596C50.0557 4.43131 50.034 4.24671 50.0498 4.0634C50.0656 3.88009 50.1185 3.70191 50.2053 3.5397C50.2921 3.37749 50.4111 3.23465 50.5549 3.11987C50.6987 3.00509 50.8643 2.92078 51.0417 2.87206C51.2191 2.82335 51.4046 2.81125 51.5869 2.8365C51.7691 2.86176 51.9443 2.92384 52.1018 3.01896C52.2593 3.11409 52.3958 3.24027 52.5029 3.38983C60.8365 13.8047 50.5911 24.2712 50.4853 24.3715C50.3595 24.4968 50.2101 24.5959 50.0458 24.6632C49.8815 24.7304 49.7055 24.7645 49.528 24.7634Z" fill="#F0C419"/>
<path d="M63.7287 28.4353C65.9753 28.4353 67.7965 26.6141 67.7965 24.3675C67.7965 22.1209 65.9753 20.2997 63.7287 20.2997C61.4821 20.2997 59.6609 22.1209 59.6609 24.3675C59.6609 26.6141 61.4821 28.4353 63.7287 28.4353Z" fill="#FF5364"/>
<path d="M43.3896 5.42373C44.8873 5.42373 46.1015 4.20959 46.1015 2.71186C46.1015 1.21414 44.8873 0 43.3896 0C41.8919 0 40.6777 1.21414 40.6777 2.71186C40.6777 4.20959 41.8919 5.42373 43.3896 5.42373Z" fill="#3B97D3"/>
<path d="M75.9321 54.2373C77.4298 54.2373 78.6439 53.0231 78.6439 51.5254C78.6439 50.0277 77.4298 48.8135 75.9321 48.8135C74.4344 48.8135 73.2202 50.0277 73.2202 51.5254C73.2202 53.0231 74.4344 54.2373 75.9321 54.2373Z" fill="#955BA5"/>
<path d="M63.7287 8.13561C63.369 8.13561 63.0242 7.99275 62.7699 7.73846C62.5156 7.48418 62.3727 7.13929 62.3727 6.77967V5.42374C62.3727 5.06413 62.5156 4.71924 62.7699 4.46495C63.0242 4.21067 63.369 4.06781 63.7287 4.06781C64.0883 4.06781 64.4332 4.21067 64.6875 4.46495C64.9417 4.71924 65.0846 5.06413 65.0846 5.42374V6.77967C65.0846 7.13929 64.9417 7.48418 64.6875 7.73846C64.4332 7.99275 64.0883 8.13561 63.7287 8.13561ZM67.7965 10.8475H66.4405C66.0809 10.8475 65.736 10.7046 65.4817 10.4503C65.2274 10.196 65.0846 9.85115 65.0846 9.49154C65.0846 9.13192 65.2274 8.78704 65.4817 8.53275C65.736 8.27846 66.0809 8.13561 66.4405 8.13561H67.7965C68.1561 8.13561 68.501 8.27846 68.7552 8.53275C69.0095 8.78704 69.1524 9.13192 69.1524 9.49154C69.1524 9.85115 69.0095 10.196 68.7552 10.4503C68.501 10.7046 68.1561 10.8475 67.7965 10.8475ZM63.7287 14.9153C63.369 14.9153 63.0242 14.7724 62.7699 14.5181C62.5156 14.2638 62.3727 13.919 62.3727 13.5593V12.2034C62.3727 11.8438 62.5156 11.4989 62.7699 11.2446C63.0242 10.9903 63.369 10.8475 63.7287 10.8475C64.0883 10.8475 64.4332 10.9903 64.6875 11.2446C64.9417 11.4989 65.0846 11.8438 65.0846 12.2034V13.5593C65.0846 13.919 64.9417 14.2638 64.6875 14.5181C64.4332 14.7724 64.0883 14.9153 63.7287 14.9153ZM61.0168 10.8475H59.6609C59.3012 10.8475 58.9564 10.7046 58.7021 10.4503C58.4478 10.196 58.3049 9.85115 58.3049 9.49154C58.3049 9.13192 58.4478 8.78704 58.7021 8.53275C58.9564 8.27846 59.3012 8.13561 59.6609 8.13561H61.0168C61.3764 8.13561 61.7213 8.27846 61.9756 8.53275C62.2299 8.78704 62.3727 9.13192 62.3727 9.49154C62.3727 9.85115 62.2299 10.196 61.9756 10.4503C61.7213 10.7046 61.3764 10.8475 61.0168 10.8475Z" fill="#955BA5"/>
<path d="M74.5761 31.1864C74.2165 31.1864 73.8716 31.0436 73.6173 30.7893C73.363 30.535 73.2201 30.1901 73.2201 29.8305V28.4746C73.2201 28.115 73.363 27.7701 73.6173 27.5158C73.8716 27.2615 74.2165 27.1187 74.5761 27.1187C74.9357 27.1187 75.2806 27.2615 75.5349 27.5158C75.7891 27.7701 75.932 28.115 75.932 28.4746V29.8305C75.932 30.1901 75.7891 30.535 75.5349 30.7893C75.2806 31.0436 74.9357 31.1864 74.5761 31.1864ZM78.6439 33.8983H77.2879C76.9283 33.8983 76.5834 33.7555 76.3291 33.5012C76.0749 33.2469 75.932 32.902 75.932 32.5424C75.932 32.1828 76.0749 31.8379 76.3291 31.5836C76.5834 31.3293 76.9283 31.1864 77.2879 31.1864H78.6439C79.0035 31.1864 79.3484 31.3293 79.6027 31.5836C79.8569 31.8379 79.9998 32.1828 79.9998 32.5424C79.9998 32.902 79.8569 33.2469 79.6027 33.5012C79.3484 33.7555 79.0035 33.8983 78.6439 33.8983ZM74.5761 37.9661C74.2165 37.9661 73.8716 37.8233 73.6173 37.569C73.363 37.3147 73.2201 36.9698 73.2201 36.6102V35.2542C73.2201 34.8946 73.363 34.5497 73.6173 34.2955C73.8716 34.0412 74.2165 33.8983 74.5761 33.8983C74.9357 33.8983 75.2806 34.0412 75.5349 34.2955C75.7891 34.5497 75.932 34.8946 75.932 35.2542V36.6102C75.932 36.9698 75.7891 37.3147 75.5349 37.569C75.2806 37.8233 74.9357 37.9661 74.5761 37.9661ZM71.8642 33.8983H70.5083C70.1487 33.8983 69.8038 33.7555 69.5495 33.5012C69.2952 33.2469 69.1523 32.902 69.1523 32.5424C69.1523 32.1828 69.2952 31.8379 69.5495 31.5836C69.8038 31.3293 70.1487 31.1864 70.5083 31.1864H71.8642C72.2238 31.1864 72.5687 31.3293 72.823 31.5836C73.0773 31.8379 73.2201 32.1828 73.2201 32.5424C73.2201 32.902 73.0773 33.2469 72.823 33.5012C72.5687 33.7555 72.2238 33.8983 71.8642 33.8983Z" fill="#3B97D3"/>
<path fill-rule="evenodd" clip-rule="evenodd" d="M45.4506 64.5966C41.9388 66.1966 37.7896 67.9593 33.3422 69.722C32.6778 69.3152 31.9727 68.8542 31.2405 68.3525C31.5645 64.4881 32.5422 60.7051 34.1286 57.1661C37.6457 60.0138 41.4386 62.503 45.4506 64.5966Z" fill="black"/>
<path d="M45.4508 64.5966C41.9389 66.1966 37.7898 67.9593 33.3423 69.722C32.6779 69.3152 31.9728 68.8542 31.2406 68.3525C28.5385 66.5323 25.9569 64.5395 23.5118 62.3864C22.305 61.3017 21.0576 60.1491 19.7965 58.8881C18.4205 57.5223 17.0997 56.102 15.8372 54.6305C13.3061 51.724 11.0075 48.6229 8.96265 45.3559C10.7254 40.9085 12.4881 36.7593 14.1016 33.2474C15.5385 36.0386 17.1838 38.7174 19.0237 41.261C21.2224 44.3348 23.6424 47.2442 26.2643 49.9661C26.644 50.3864 27.0508 50.7932 27.4711 51.2135C29.5759 53.3221 31.7987 55.3095 34.1287 57.1661C37.6459 60.0138 41.4387 62.503 45.4508 64.5966Z" fill="#FF5364"/>
<path d="M34.1287 57.1661C32.5412 60.7051 31.5646 64.4874 31.2405 68.3526C28.5385 66.5324 25.9568 64.5395 23.5117 62.3865C23.6066 58.1058 24.5422 53.8848 26.2643 49.9661C26.6439 50.3865 27.0507 50.7932 27.471 51.2136C29.5758 53.3222 31.7986 55.3096 34.1287 57.1661Z" fill="#955BA5"/>
<path d="M26.2643 49.9661C24.5417 53.8859 23.6064 58.106 23.5117 62.3865C22.305 61.3017 21.0575 60.1492 19.7965 58.8882C18.4204 57.5224 17.0996 56.102 15.8372 54.6305C15.9776 50.0035 17.0619 45.454 19.0236 41.261C21.2224 44.3349 23.6423 47.2443 26.2643 49.9661Z" fill="#B49ACA"/>
<path d="M14.8474 76.2576C12.0677 77.1119 9.32872 77.8712 6.71177 78.522C5.80717 78.7469 4.85978 78.7341 3.96162 78.4847C3.06346 78.2353 2.24507 77.7578 1.58594 77.0987C0.926819 76.4396 0.449368 75.6212 0.19997 74.723C-0.0494275 73.8249 -0.0622943 72.8775 0.16262 71.9729C0.813467 69.3559 1.57279 66.6169 2.42703 63.8373C6.10283 68.417 10.2676 72.5818 14.8474 76.2576Z" fill="#FF5364"/>
</svg>
