<svg width="16" height="16" viewBox="0 0 16 16" fill="none" xmlns="http://www.w3.org/2000/svg">
<path fill-rule="evenodd" clip-rule="evenodd" d="M8 15.2C11.9764 15.2 15.2 11.9765 15.2 8C15.2 4.02355 11.9765 0.799983 8 0.799983C4.02355 0.799983 0.799983 4.02355 0.799983 8C0.799983 11.9764 4.02355 15.2 8 15.2ZM8 16C12.4182 16 16 12.4182 16 8C16 3.58169 12.4182 0 8 0C3.58169 0 0 3.58169 0 8C0 12.4182 3.58169 16 8 16Z" fill="#323232"/>
<path fill-rule="evenodd" clip-rule="evenodd" d="M11.1998 8.00009C11.1998 8.10617 11.1577 8.20789 11.0827 8.2829C11.0077 8.35791 10.9059 8.40006 10.7998 8.40008H5.1998C5.09371 8.40008 4.99197 8.35794 4.91696 8.28293C4.84195 8.20791 4.7998 8.10617 4.7998 8.00009C4.7998 7.894 4.84195 7.79227 4.91696 7.71725C4.99197 7.64224 5.09371 7.6001 5.1998 7.6001H10.7998C10.9058 7.60012 11.0076 7.64227 11.0826 7.71727C11.1576 7.79228 11.1998 7.894 11.1998 8.00009Z" fill="#323232"/>
<path fill-rule="evenodd" clip-rule="evenodd" d="M7.9996 11.2001C7.89352 11.2001 7.7918 11.1579 7.71679 11.0829C7.64178 11.0079 7.59963 10.9062 7.59961 10.8001V5.20004C7.59961 5.09396 7.64175 4.99222 7.71676 4.9172C7.79178 4.84219 7.89352 4.80005 7.9996 4.80005C8.10569 4.80005 8.20742 4.84219 8.28244 4.9172C8.35745 4.99222 8.39959 5.09396 8.39959 5.20004V10.8C8.39957 10.9061 8.35742 11.0078 8.28242 11.0828C8.20741 11.1579 8.10569 11.2 7.9996 11.2001Z" fill="#323232"/>
</svg>
