<svg width="24" height="24" viewBox="0 0 24 24" fill="none" xmlns="http://www.w3.org/2000/svg">
<path fill-rule="evenodd" clip-rule="evenodd" d="M11.5922 9.16804C10.9362 9.16804 9.91416 8.40404 8.85216 8.40404C7.44016 8.40404 6.14816 9.26704 5.42016 10.533C3.95616 13.075 5.04316 16.831 6.47116 18.897C7.17216 19.903 7.99816 21.035 9.09416 20.999C10.1452 20.954 10.5402 20.316 11.8162 20.316C13.0832 20.316 13.4422 20.999 14.5562 20.972C15.6882 20.954 16.4072 19.948 17.0982 18.933C17.8982 17.765 18.2302 16.633 18.2482 16.57C18.2212 16.561 16.0472 15.726 16.0202 13.21C16.0022 11.108 17.7362 10.102 17.8172 10.057C16.8292 8.61104 15.3112 8.44904 14.7812 8.41304C13.3972 8.30504 12.2392 9.16804 11.5922 9.16804V9.16804Z" stroke="#323232" stroke-width="1.5" stroke-linecap="round" stroke-linejoin="round"/>
<path d="M13.651 2.95439C14.52 2.63087 15.0884 3.10787 14.9206 4.01981C14.7528 4.93174 13.9124 5.93328 13.0434 6.25679C12.1744 6.58032 11.606 6.10332 11.7738 5.19138C11.9416 4.27945 12.782 3.27791 13.651 2.95439" stroke="#323232" stroke-width="1.49996" stroke-linecap="round" stroke-linejoin="round"/>
</svg>
