<svg width="19" height="19" viewBox="0 0 19 19" fill="none" xmlns="http://www.w3.org/2000/svg">
<path fill-rule="evenodd" clip-rule="evenodd" d="M7.66499 8.22363L14.5957 1.2929C14.7832 1.10536 15.0376 1 15.3028 1C15.568 1 15.8224 1.10536 16.0099 1.2929L17.707 2.99001C18.0975 3.38053 18.0975 4.01369 17.707 4.40422L10.7763 11.3349C10.6233 11.4879 10.4248 11.5872 10.2106 11.6178L7.57071 11.9949C7.41491 12.0171 7.25773 11.9647 7.14645 11.8535C7.03517 11.7422 6.98277 11.585 7.00503 11.4292L7.38215 8.78935C7.41274 8.57514 7.51199 8.37663 7.66499 8.22363Z" stroke="white" stroke-width="1.5" stroke-linecap="round" stroke-linejoin="round"/>
<path d="M17 10V16C17 17.1046 16.1046 18 15 18H3C1.89543 18 1 17.1046 1 16V4C1 2.89543 1.89543 2 3 2H9" stroke="white" stroke-width="1.5" stroke-linecap="round" stroke-linejoin="round"/>
</svg>
