<svg width="18" height="18" viewBox="0 0 18 18" fill="none" xmlns="http://www.w3.org/2000/svg">
<path d="M9.00024 12.3357C8.49702 12.3357 8.0752 12.7575 8.0752 13.2607C8.0752 13.764 8.49702 14.1858 9.00024 14.1858C9.48496 14.1858 9.92528 13.764 9.90308 13.2829C9.92528 12.7538 9.50716 12.3357 9.00024 12.3357Z" fill="#E73A62"/>
<path d="M17.562 15.6141C18.1429 14.6114 18.1466 13.4162 17.5694 12.4172L11.7749 2.38228C11.2014 1.37213 10.1653 0.772705 9.00348 0.772705C7.84162 0.772705 6.80557 1.37583 6.23204 2.37858L0.430163 12.4246C-0.147064 13.4347 -0.143364 14.6373 0.441264 15.64C1.01849 16.6317 2.05084 17.2274 3.2053 17.2274H14.7795C15.9376 17.2274 16.9774 16.6243 17.562 15.6141ZM16.3039 14.8889C15.982 15.4439 15.4122 15.7732 14.7758 15.7732H3.2016C2.57257 15.7732 2.00644 15.4513 1.69192 14.9074C1.37371 14.3561 1.37001 13.6974 1.68822 13.1424L7.4901 3.10012C7.80462 2.54879 8.36705 2.22318 9.00348 2.22318C9.63621 2.22318 10.2023 2.55249 10.5168 3.10382L16.315 13.1461C16.6258 13.6863 16.6221 14.3376 16.3039 14.8889Z" fill="#E73A62"/>
<path d="M8.77077 5.84203C8.33045 5.96784 8.05664 6.36746 8.05664 6.85218C8.07884 7.1445 8.09734 7.44051 8.11954 7.73282C8.18245 8.84658 8.24535 9.93813 8.30825 11.0519C8.33045 11.4293 8.62277 11.7031 9.00019 11.7031C9.3776 11.7031 9.67362 11.4108 9.69212 11.0297C9.69212 10.8003 9.69212 10.5894 9.71432 10.3563C9.75502 9.64212 9.79942 8.92798 9.84013 8.21385C9.86233 7.75133 9.90303 7.2888 9.92523 6.82628C9.92523 6.65977 9.90303 6.51177 9.84013 6.36376C9.65142 5.94934 9.2111 5.73843 8.77077 5.84203Z" fill="#E73A62"/>
</svg>
