<svg width="68" height="68" viewBox="0 0 68 68" fill="none" xmlns="http://www.w3.org/2000/svg">
<path d="M36.0535 1.37328C35.4672 0.914835 34.7444 0.665771 34.0001 0.665771C33.2559 0.665771 32.5331 0.914835 31.9468 1.37328L26.4135 5.69995L19.4668 4.71995C18.7307 4.61657 17.9812 4.76216 17.3374 5.1336C16.6936 5.50503 16.1924 6.081 15.9135 6.76995L13.2835 13.28L6.77345 15.91C6.0845 16.1889 5.50853 16.6901 5.1371 17.3339C4.76566 17.9777 4.62007 18.7272 4.72345 19.4633L5.70012 26.4166L1.37678 31.95C0.919971 32.5357 0.671875 33.2572 0.671875 34C0.671875 34.7427 0.919971 35.4642 1.37678 36.0499L5.70012 41.5833L4.72345 48.5366C4.62007 49.2727 4.76566 50.0222 5.1371 50.666C5.50853 51.3098 6.0845 51.811 6.77345 52.09L13.2835 54.7199L15.9135 61.2299C16.1918 61.9195 16.6928 62.4962 17.3367 62.8683C17.9805 63.2403 18.7303 63.3864 19.4668 63.2833L26.4201 62.3033L31.9535 66.6266C32.5392 67.0834 33.2607 67.3315 34.0035 67.3315C34.7462 67.3315 35.4677 67.0834 36.0535 66.6266L41.5868 62.3033L48.5401 63.2833C49.2766 63.3864 50.0264 63.2403 50.6702 62.8683C51.3141 62.4962 51.8151 61.9195 52.0934 61.2299L54.7234 54.7199L61.2334 52.09C61.923 51.8116 62.4997 51.3106 62.8718 50.6667C63.2439 50.0229 63.3899 49.2731 63.2868 48.5366L62.3068 41.5833L66.6301 36.0499C67.0869 35.4642 67.335 34.7427 67.335 34C67.335 33.2572 67.0869 32.5357 66.6301 31.95L62.3068 26.4166L63.2868 19.4633C63.3899 18.7268 63.2439 17.977 62.8718 17.3332C62.4997 16.6893 61.923 16.1883 61.2334 15.91L54.7234 13.28L52.0934 6.76995C51.8145 6.081 51.3133 5.50503 50.6695 5.1336C50.0257 4.76216 49.2762 4.61657 48.5401 4.71995L41.5868 5.69662L36.0535 1.37328Z" fill="#FA1228"/>
<path fill-rule="evenodd" clip-rule="evenodd" d="M29.2876 24.5734C28.6589 23.9662 27.8169 23.6302 26.9429 23.6378C26.0689 23.6454 25.2329 23.996 24.6149 24.614C23.9968 25.232 23.6463 26.0681 23.6387 26.9421C23.6311 27.8161 23.9671 28.6581 24.5743 29.2867L29.2876 34.0001L24.5743 38.7134C24.2559 39.0209 24.002 39.3887 23.8273 39.7954C23.6526 40.2021 23.5606 40.6395 23.5568 41.0821C23.5529 41.5247 23.6373 41.9636 23.8049 42.3732C23.9725 42.7829 24.22 43.1551 24.533 43.4681C24.8459 43.781 25.2181 44.0285 25.6278 44.1961C26.0374 44.3637 26.4763 44.4481 26.9189 44.4442C27.3615 44.4404 27.7989 44.3484 28.2056 44.1737C28.6123 43.999 28.9801 43.7451 29.2876 43.4267L34.0009 38.7134L38.7143 43.4267C39.0218 43.7451 39.3896 43.999 39.7963 44.1737C40.2029 44.3484 40.6403 44.4404 41.0829 44.4442C41.5255 44.4481 41.9645 44.3637 42.3741 44.1961C42.7838 44.0285 43.1559 43.781 43.4689 43.4681C43.7819 43.1551 44.0294 42.7829 44.197 42.3732C44.3646 41.9636 44.4489 41.5247 44.4451 41.0821C44.4413 40.6395 44.3493 40.2021 44.1746 39.7954C43.9999 39.3887 43.746 39.0209 43.4276 38.7134L38.7143 34.0001L43.4276 29.2867C44.0348 28.6581 44.3708 27.8161 44.3632 26.9421C44.3556 26.0681 44.005 25.232 43.387 24.614C42.769 23.996 41.9329 23.6454 41.0589 23.6378C40.1849 23.6302 39.3429 23.9662 38.7143 24.5734L34.0009 29.2867L29.2876 24.5734Z" fill="#EBEBED"/>
</svg>
