<svg width="96" height="97" viewBox="0 0 96 97" fill="none" xmlns="http://www.w3.org/2000/svg">
<path fill-rule="evenodd" clip-rule="evenodd" d="M83 73H78C75.24 73 73 70.76 73 68V43C73 40.24 75.24 38 78 38H83C88.525 38 93 42.475 93 48V63C93 68.525 88.525 73 83 73Z" stroke="#323232" stroke-width="4.5" stroke-linecap="round" stroke-linejoin="round"/>
<path fill-rule="evenodd" clip-rule="evenodd" d="M18 73H13C7.475 73 3 68.525 3 63V48C3 42.475 7.475 38 13 38H18C20.76 38 23 40.24 23 43V68C23 70.76 20.76 73 18 73Z" stroke="#323232" stroke-width="4.5" stroke-linecap="round" stroke-linejoin="round"/>
<path d="M80.5 38V35.5C80.5 17.55 65.95 3 48 3V3C30.05 3 15.5 17.55 15.5 35.5V38" stroke="#323232" stroke-width="4.5" stroke-linecap="round" stroke-linejoin="round"/>
<path fill-rule="evenodd" clip-rule="evenodd" d="M51.125 94.25H44.875C41.425 94.25 38.625 91.45 38.625 88V88C38.625 84.55 41.425 81.75 44.875 81.75H51.125C54.575 81.75 57.375 84.55 57.375 88V88C57.375 91.45 54.575 94.25 51.125 94.25Z" stroke="#323232" stroke-width="4.5" stroke-linecap="round" stroke-linejoin="round"/>
<path d="M57.375 88H68C73.525 88 78 83.525 78 78V73" stroke="#323232" stroke-width="4.5" stroke-linecap="round" stroke-linejoin="round"/>
</svg>
