<svg width="24" height="24" viewBox="0 0 24 24" fill="none" xmlns="http://www.w3.org/2000/svg">
<path d="M14 9H15.2918C15.7575 9 16.2169 9.10844 16.6334 9.31672L17.2186 9.60931C17.7289 9.86447 18.1559 10.2599 18.4495 10.7491L21 15" stroke="white" stroke-width="1.5" stroke-linecap="round" stroke-linejoin="round"/>
<path d="M11 18H6C4.34315 18 3 16.6569 3 15V6C3 4.34315 4.34315 3 6 3H11C12.6569 3 14 4.34315 14 6V14" stroke="white" stroke-width="1.5" stroke-linecap="round" stroke-linejoin="round"/>
<path d="M6.5 6.5V8.5" stroke="white" stroke-width="1.5" stroke-linecap="round" stroke-linejoin="round"/>
<path d="M16 21L13.2486 19.942C12.4383 19.6304 11.7513 19.0636 11.2914 18.3272L8.24268 13.4452C7.84854 12.814 7.94205 11.9943 8.46822 11.4682V11.4682C8.77848 11.1579 9.20262 10.9888 9.64123 11.0006C10.0798 11.0123 10.4943 11.2038 10.7876 11.5302L13.0068 14H15" stroke="white" stroke-width="1.5" stroke-linecap="round" stroke-linejoin="round"/>
</svg>
