<svg width="32" height="32" viewBox="0 0 32 32" fill="none" xmlns="http://www.w3.org/2000/svg">
<circle cx="16" cy="16" r="15.5" stroke="#013024"/>
<path d="M13.9248 21.0022V21.429C13.9248 21.9794 14.1436 22.5073 14.5329 22.8963C14.9223 23.2853 15.4503 23.5037 16.0007 23.5032V23.5032C16.5511 23.5035 17.0792 23.2849 17.4685 22.8958C17.8578 22.5066 18.0765 21.9787 18.0765 21.4282V21.0022" stroke="#013024" stroke-linecap="round" stroke-linejoin="round"/>
<path fill-rule="evenodd" clip-rule="evenodd" d="M20.9584 21.002C21.9037 21.002 22.6699 20.2357 22.6699 19.2905V19.2905C22.6696 18.8103 22.4789 18.3499 22.1397 18.01L21.0026 16.8736V13.4989C21.0026 10.7363 18.7631 8.49683 16.0005 8.49683V8.49683C13.2379 8.49683 10.9984 10.7363 10.9984 13.4989V16.8736L9.86128 18.01C9.5221 18.3499 9.33144 18.8103 9.33105 19.2905V19.2905C9.33105 19.7444 9.51138 20.1798 9.83235 20.5007C10.1533 20.8217 10.5887 21.002 11.0426 21.002H20.9584Z" stroke="#013024" stroke-linecap="round" stroke-linejoin="round"/>
</svg>
