<svg width="24" height="24" viewBox="0 0 24 24" fill="none" xmlns="http://www.w3.org/2000/svg">
<path d="M18.3549 17.0868C21.8819 13.6218 21.8819 8.06277 18.3549 4.59777C14.8279 1.13277 9.17088 1.13277 5.64488 4.59777C2.11888 8.06277 2.11788 13.6218 5.64488 17.0868" stroke="white" stroke-width="1.5" stroke-linecap="round" stroke-linejoin="round"/>
<path fill-rule="evenodd" clip-rule="evenodd" d="M4.09961 21H20.0996H4.09961Z" stroke="white" stroke-width="1.5" stroke-linecap="round" stroke-linejoin="round"/>
<path d="M12 6V7.25" stroke="white" stroke-width="1.5" stroke-linecap="round" stroke-linejoin="round"/>
<path d="M12 16V14.75" stroke="white" stroke-width="1.5" stroke-linecap="round" stroke-linejoin="round"/>
<path d="M14.487 9C14.422 8.024 13.617 7.25 12.625 7.25H11.255C10.285 7.25 9.5 8.036 9.5 9.005C9.5 9.81 10.048 10.512 10.828 10.708L13.171 11.296C13.952 11.492 14.499 12.194 14.499 12.999C14.499 13.969 13.713 14.754 12.744 14.754H11.374C10.38 14.754 9.575 13.978 9.511 13" stroke="white" stroke-width="1.5" stroke-linecap="round" stroke-linejoin="round"/>
</svg>
