<svg width="80" height="80" viewBox="0 0 80 80" fill="none" xmlns="http://www.w3.org/2000/svg">
<path d="M77.375 43.9625C77.6262 43.5569 77.9381 43.1922 78.3 42.8813C79.1 42.1 80 41.2125 80 40C80 38.7875 79.1 37.9 78.3 37.1188C77.9455 36.8099 77.6344 36.4546 77.375 36.0625C77.5354 35.5956 77.7719 35.1585 78.075 34.7688C78.6875 33.85 79.3812 32.8125 79.1312 31.6438C78.8875 30.4563 77.8187 29.7813 76.8812 29.1875C76.4671 28.9572 76.0865 28.6712 75.75 28.3375C75.8144 27.8496 75.9557 27.3749 76.1688 26.9313C76.575 25.9063 77.0375 24.7375 76.55 23.6438C76.0625 22.5438 74.8812 22.1063 73.8375 21.7188C73.3843 21.5829 72.9529 21.383 72.5562 21.125C72.5175 20.6388 72.5555 20.1495 72.6687 19.675C72.8562 18.5813 73.0687 17.3375 72.3625 16.3688C71.6562 15.3938 70.4125 15.2125 69.3188 15.05C68.8454 15.0151 68.3798 14.9098 67.9375 14.7375C67.7985 14.2715 67.7352 13.7861 67.75 13.3C67.7063 12.1875 67.6562 10.9313 66.7688 10.125C65.875 9.31876 64.625 9.40001 63.5187 9.46876C63.0474 9.5313 62.5695 9.52498 62.1 9.45001C61.8744 9.02216 61.7143 8.56288 61.625 8.08751C61.3563 7.00626 61.05 5.78751 60.0063 5.18126C58.9688 4.57501 57.7625 4.91876 56.7 5.21876C56.2485 5.37555 55.7772 5.46812 55.3 5.49376C54.9935 5.1229 54.7448 4.70778 54.5625 4.26251C54.0688 3.26251 53.5125 2.13126 52.3688 1.75626C51.225 1.38126 50.1187 1.96876 49.1437 2.48751C48.7335 2.7332 48.2921 2.92241 47.8312 3.05001C47.4553 2.75591 47.1265 2.40603 46.8563 2.01251C46.1688 1.13126 45.3875 0.137512 44.1813 0.0125117C42.9875 -0.112488 42.0375 0.693762 41.1875 1.40001C40.8372 1.73418 40.4391 2.01433 40.0063 2.23126C39.5674 2.01812 39.1646 1.73764 38.8125 1.40001C37.9625 0.687512 37 -0.112488 35.8188 0.0125117C34.6125 0.137512 33.8312 1.13126 33.1437 2.01251C32.874 2.39857 32.5546 2.74741 32.1937 3.05001C31.7213 2.9334 31.27 2.7436 30.8562 2.48751C29.8812 1.96876 28.7688 1.38126 27.6375 1.75626C26.4875 2.13126 25.9312 3.26251 25.4375 4.26251C25.255 4.70174 25.0131 5.1139 24.7188 5.48751C24.2367 5.47319 23.7599 5.38248 23.3063 5.21876C22.2375 4.91251 21.0312 4.57501 19.9937 5.18126C18.9562 5.78126 18.6437 7.00626 18.375 8.08751C18.2862 8.55649 18.1327 9.01084 17.9188 9.43751C17.4442 9.52382 16.9591 9.53437 16.4813 9.46876C15.375 9.40001 14.125 9.31876 13.2312 10.125C12.3438 10.9313 12.2937 12.1875 12.25 13.3C12.2616 13.7786 12.2048 14.2563 12.0813 14.7188C11.6358 14.9049 11.1629 15.0168 10.6812 15.05C9.5875 15.2125 8.34375 15.3938 7.6375 16.3688C6.93125 17.3375 7.14375 18.575 7.33125 19.6688C7.44029 20.1397 7.48237 20.6236 7.45625 21.1063C7.05766 21.3772 6.61898 21.5839 6.15625 21.7188C5.11875 22.1063 3.9375 22.5375 3.45 23.6438C2.9625 24.7375 3.425 25.9063 3.83125 26.9313C4.03998 27.3705 4.18317 27.838 4.25625 28.3188C3.92354 28.6629 3.53989 28.9538 3.11875 29.1813C2.18125 29.7813 1.1125 30.4563 0.86875 31.6438C0.61875 32.8125 1.3125 33.85 1.925 34.7688C2.22192 35.1533 2.45801 35.5812 2.625 36.0375C2.37384 36.4432 2.06187 36.8078 1.7 37.1188C0.9 37.9 0 38.7875 0 40C0 41.2125 0.9 42.1 1.7 42.8813C2.0545 43.1901 2.36565 43.5454 2.625 43.9375C2.46462 44.4044 2.22809 44.8416 1.925 45.2313C1.3125 46.15 0.61875 47.1875 0.86875 48.3563C1.1125 49.5438 2.18125 50.2188 3.11875 50.8125C3.53286 51.0429 3.91348 51.3289 4.25 51.6625C4.18565 52.1505 4.04431 52.6251 3.83125 53.0688C3.425 54.0938 2.9625 55.2625 3.45 56.3563C3.9375 57.4563 5.11875 57.8938 6.1625 58.2813C6.61569 58.4171 7.04714 58.6171 7.44375 58.875C7.48246 59.3613 7.4445 59.8506 7.33125 60.325C7.14375 61.4188 6.93125 62.6625 7.6375 63.6313C8.34375 64.6063 9.5875 64.7875 10.6812 64.95C11.1546 64.9849 11.6202 65.0902 12.0625 65.2625C12.2015 65.7286 12.2648 66.2139 12.25 66.7C12.2937 67.8125 12.3438 69.0688 13.2312 69.875C14.125 70.6813 15.375 70.6 16.4813 70.5313C16.9526 70.4687 17.4305 70.475 17.9 70.55C18.1256 70.9779 18.2857 71.4371 18.375 71.9125C18.6437 72.9938 18.95 74.2125 19.9937 74.8188C21.0312 75.425 22.2375 75.0813 23.3 74.7813C23.7507 74.6215 24.2224 74.5288 24.7 74.5063C25.0065 74.8771 25.2552 75.2922 25.4375 75.7375C25.9312 76.7375 26.4875 77.8688 27.6312 78.2438C28.775 78.6125 29.8812 78.0313 30.8562 77.5125C31.2605 77.2553 31.7037 77.0653 32.1688 76.95C32.5447 77.2441 32.8735 77.594 33.1437 77.9875C33.8312 78.8688 34.6125 79.8625 35.8188 79.9875C37.0063 80.1063 37.9625 79.3063 38.8125 78.6C39.1628 78.2658 39.5609 77.9857 39.9938 77.7688C40.4326 77.9819 40.8354 78.2624 41.1875 78.6C41.975 79.2625 42.8625 80 43.9375 80C44.0188 80 44.1 79.9938 44.1813 79.9875C45.3875 79.8625 46.1688 78.8688 46.8563 77.9875C47.126 77.6015 47.4454 77.2526 47.8062 76.95C48.2785 77.0672 48.7297 77.2569 49.1437 77.5125C50.1187 78.0313 51.225 78.6188 52.3625 78.2438C53.5125 77.8688 54.0688 76.7375 54.5625 75.7375C54.745 75.2983 54.9869 74.8861 55.2812 74.5125C55.763 74.53 56.2393 74.6206 56.6937 74.7813C57.7625 75.0813 58.9688 75.425 60.0063 74.8188C61.0438 74.2188 61.3563 72.9938 61.625 71.9125C61.7138 71.4435 61.8673 70.9892 62.0813 70.5625C62.5558 70.4762 63.0409 70.4657 63.5187 70.5313C64.625 70.6 65.875 70.6813 66.7688 69.875C67.6562 69.0688 67.7063 67.8125 67.75 66.7C67.7384 66.2215 67.7952 65.7437 67.9187 65.2813C68.3642 65.0951 68.8371 64.9832 69.3188 64.95C70.4125 64.7875 71.6562 64.6063 72.3625 63.6313C73.0687 62.6625 72.8562 61.425 72.6687 60.3313C72.5597 59.8604 72.5176 59.3764 72.5437 58.8938C72.9423 58.6228 73.381 58.4161 73.8438 58.2813C74.8812 57.8938 76.0625 57.4625 76.55 56.3563C77.0375 55.2625 76.575 54.0938 76.1688 53.0688C75.96 52.6295 75.8168 52.1621 75.7438 51.6813C76.0765 51.3371 76.4601 51.0462 76.8812 50.8188C77.8187 50.2188 78.8875 49.5438 79.1312 48.3563C79.3812 47.1875 78.6875 46.15 78.075 45.2313C77.7781 44.8467 77.542 44.4188 77.375 43.9625ZM76.55 41.0938C75.825 41.8063 75 42.6188 74.8875 43.6938C74.775 44.7813 75.425 45.7563 75.9937 46.6125C76.2702 46.988 76.505 47.3924 76.6937 47.8188C76.361 48.1749 75.9726 48.4747 75.5438 48.7063C74.6813 49.25 73.7 49.875 73.3688 50.9063C73.0312 51.9438 73.4625 53.0313 73.8438 53.9875C74.0379 54.4139 74.1846 54.8603 74.2812 55.3188C73.8801 55.5907 73.4396 55.7994 72.975 55.9375C72.0125 56.2938 70.925 56.6938 70.3812 57.6375C69.8375 58.5813 70.0312 59.7313 70.2063 60.7438C70.3068 61.2036 70.357 61.673 70.3562 62.1438C69.9101 62.3277 69.4375 62.4395 68.9563 62.475C67.9437 62.625 66.7937 62.7875 66.0687 63.6C65.3375 64.4125 65.2938 65.575 65.2563 66.6063C65.2625 67.0769 65.2143 67.5467 65.1125 68.0063C64.6398 68.0893 64.1572 68.0998 63.6813 68.0375C62.6562 67.9688 61.4938 67.8938 60.6125 68.5375C59.7375 69.1813 59.4562 70.3063 59.2 71.3063C59.1104 71.7662 58.97 72.2148 58.7812 72.6438C58.3016 72.6262 57.8274 72.5356 57.375 72.375C56.3875 72.1 55.2688 71.7813 54.2688 72.2313C53.2812 72.675 52.7687 73.7188 52.3187 74.6375C52.1298 75.0762 51.884 75.488 51.5875 75.8625C51.1412 75.7304 50.7129 75.5436 50.3125 75.3063C49.4 74.825 48.3687 74.275 47.2937 74.5063C46.2375 74.7313 45.525 75.6438 44.8938 76.4438C44.6185 76.8349 44.2928 77.188 43.925 77.4938C43.5141 77.2734 43.1338 77.0002 42.7938 76.6813C42 76.0188 41.1 75.2688 40 75.2688C38.9 75.2688 38 76.0188 37.2062 76.6875C36.8646 77.0028 36.4845 77.2737 36.075 77.4938C35.7088 77.1864 35.3832 76.8335 35.1062 76.4438C34.475 75.6438 33.7625 74.7313 32.7063 74.5063C31.6313 74.275 30.6 74.825 29.6875 75.3063C29.2871 75.5436 28.8588 75.7304 28.4125 75.8625C28.116 75.488 27.8702 75.0762 27.6813 74.6375C27.2313 73.7188 26.7187 72.675 25.7312 72.2313C24.7312 71.7813 23.6125 72.1 22.625 72.375C22.1813 72.5288 21.7187 72.6214 21.25 72.65C21.0403 72.2238 20.8869 71.7721 20.7938 71.3063C20.5438 70.3063 20.2625 69.1813 19.3875 68.5375C18.5 67.8938 17.3375 67.9688 16.3188 68.0375C15.8577 68.0871 15.3927 68.0892 14.9312 68.0438C14.7918 67.5757 14.7285 67.0882 14.7437 66.6C14.7063 65.575 14.6625 64.4125 13.9313 63.6C13.2063 62.7875 12.0562 62.6188 11.0437 62.475C10.5791 62.4285 10.1204 62.3343 9.675 62.1938C9.63914 61.7072 9.67921 61.218 9.79375 60.7438C9.9625 59.7313 10.1625 58.5813 9.61875 57.6375C9.075 56.6938 7.9875 56.2938 7.025 55.9375C6.57768 55.7973 6.14781 55.6064 5.74375 55.3688C5.80908 54.8898 5.94823 54.4239 6.15625 53.9875C6.5375 53.0313 6.96875 51.9438 6.63125 50.9063C6.3 49.875 5.31875 49.25 4.45625 48.7063C4.04515 48.4757 3.66325 48.1967 3.31875 47.875C3.48048 47.4208 3.71247 46.9948 4.00625 46.6125C4.575 45.7563 5.225 44.7813 5.1125 43.6938C5 42.6188 4.175 41.8063 3.45 41.0938C3.08892 40.7796 2.76964 40.4204 2.5 40.025C2.75305 39.6024 3.07402 39.2245 3.45 38.9063C4.175 38.1938 5 37.3813 5.1125 36.3063C5.225 35.2188 4.575 34.2438 4.00625 33.3875C3.72976 33.0121 3.49504 32.6076 3.30625 32.1813C3.63899 31.8251 4.02738 31.5254 4.45625 31.2938C5.31875 30.75 6.3 30.125 6.63125 29.0938C6.96875 28.0563 6.5375 26.9688 6.15625 26.0125C5.9621 25.5861 5.81539 25.1397 5.71875 24.6813C6.11989 24.4093 6.56045 24.2006 7.025 24.0625C7.9875 23.7063 9.075 23.3063 9.61875 22.3625C10.1625 21.4188 9.96875 20.2688 9.79375 19.2563C9.69324 18.7964 9.64295 18.327 9.64375 17.8563C10.0899 17.6723 10.5625 17.5605 11.0437 17.525C12.0562 17.375 13.2063 17.2125 13.9313 16.4C14.6625 15.5875 14.7063 14.425 14.7437 13.3938C14.7375 12.9231 14.7857 12.4533 14.8875 11.9938C15.3605 11.9139 15.8427 11.9034 16.3188 11.9625C17.3438 12.0313 18.5063 12.1063 19.3875 11.4625C20.2625 10.8188 20.5437 9.69376 20.8 8.69376C20.8896 8.23378 21.03 7.7852 21.2188 7.35626C21.6984 7.37437 22.1725 7.46498 22.625 7.62501C23.6125 7.90001 24.7312 8.21876 25.7312 7.76876C26.7187 7.32501 27.2313 6.28126 27.6813 5.36251C27.8702 4.92386 28.1161 4.51199 28.4125 4.13751C28.8588 4.26956 29.2871 4.4564 29.6875 4.69376C30.6 5.17501 31.6313 5.72501 32.7063 5.49376C33.7625 5.26876 34.475 4.35626 35.1062 3.55626C35.3815 3.16507 35.7072 2.81201 36.075 2.50626C36.4859 2.72666 36.8662 2.99981 37.2062 3.31876C38 3.98126 38.9 4.73126 40 4.73126C41.1 4.73126 42 3.98126 42.7938 3.31251C43.1354 2.99726 43.5155 2.72637 43.925 2.50626C44.2912 2.81367 44.6168 3.16651 44.8938 3.55626C45.525 4.35626 46.2375 5.26876 47.2937 5.49376C48.3687 5.72501 49.4 5.17501 50.3125 4.69376C50.7129 4.4564 51.1412 4.26956 51.5875 4.13751C51.8839 4.51199 52.1298 4.92386 52.3187 5.36251C52.7687 6.28126 53.2812 7.32501 54.2688 7.76876C55.2688 8.21876 56.3875 7.90001 57.375 7.62501C57.8187 7.47118 58.2813 7.37865 58.75 7.35001C58.9597 7.77624 59.1131 8.22795 59.2063 8.69376C59.4563 9.69376 59.7375 10.8188 60.6125 11.4625C61.5 12.1063 62.6625 12.0313 63.6813 11.9625C64.1423 11.9129 64.6073 11.9108 65.0687 11.9563C65.2082 12.4244 65.2715 12.9118 65.2563 13.4C65.2938 14.425 65.3375 15.5875 66.0687 16.4C66.7937 17.2125 67.9437 17.3813 68.9563 17.525C69.421 17.5715 69.8796 17.6657 70.325 17.8063C70.3608 18.2928 70.3208 18.782 70.2063 19.2563C70.0375 20.2688 69.8375 21.4188 70.3812 22.3625C70.925 23.3063 72.0125 23.7063 72.975 24.0625C73.4223 24.2028 73.8522 24.3936 74.2562 24.6313C74.1909 25.1102 74.0518 25.5762 73.8438 26.0125C73.4625 26.9688 73.0312 28.0563 73.3688 29.0938C73.7 30.125 74.6813 30.75 75.5438 31.2938C75.9548 31.5243 76.3368 31.8034 76.6813 32.125C76.5195 32.5792 76.2875 33.0052 75.9937 33.3875C75.425 34.2438 74.775 35.2188 74.8875 36.3063C75 37.3813 75.825 38.1938 76.55 38.9063C76.9167 39.2224 77.2347 39.591 77.4938 40C77.2347 40.409 76.9167 40.7776 76.55 41.0938Z" fill="#2D4356"/>
<path d="M76.55 41.0938C76.9167 40.7777 77.2347 40.4091 77.4938 40.0001C77.2347 39.5911 76.9167 39.2225 76.55 38.9063C75.825 38.1938 75 37.3813 74.8875 36.3064C74.775 35.2188 75.425 34.2438 75.9937 33.3876C76.2875 33.0053 76.5195 32.5793 76.6813 32.1251C76.3368 31.8034 75.9548 31.5244 75.5438 31.2938C74.6813 30.7501 73.7 30.1251 73.3688 29.0938C73.0312 28.0563 73.4625 26.9688 73.8438 26.0126C74.0518 25.5763 74.1909 25.1103 74.2562 24.6313C73.8522 24.3937 73.4223 24.2029 72.975 24.0626C72.0125 23.7063 70.925 23.3063 70.3812 22.3626C69.8375 21.4188 70.0375 20.2688 70.2063 19.2563C70.3208 18.7821 70.3608 18.2929 70.325 17.8063C69.8796 17.6658 69.421 17.5716 68.9563 17.5251C67.9437 17.3813 66.7937 17.2126 66.0687 16.4001C65.3375 15.5876 65.2938 14.4251 65.2563 13.4001C65.2715 12.9119 65.2082 12.4244 65.0687 11.9563C64.6073 11.9109 64.1423 11.913 63.6813 11.9626C62.6625 12.0313 61.5 12.1063 60.6125 11.4626C59.7375 10.8188 59.4563 9.69385 59.2063 8.69385C59.1131 8.22803 58.9597 7.77632 58.75 7.3501C58.2813 7.37874 57.8187 7.47126 57.375 7.6251C56.3875 7.9001 55.2688 8.21885 54.2688 7.76885C53.2812 7.3251 52.7687 6.28135 52.3187 5.3626C52.1298 4.92395 51.8839 4.51208 51.5875 4.1376C51.1412 4.26965 50.7129 4.45649 50.3125 4.69385C49.4 5.1751 48.3687 5.7251 47.2937 5.49385C46.2375 5.26885 45.525 4.35635 44.8938 3.55635C44.6168 3.1666 44.2912 2.81375 43.925 2.50635C43.5155 2.72646 43.1354 2.99734 42.7938 3.3126C42 3.98135 41.1 4.73135 40 4.73135C38.9 4.73135 38 3.98135 37.2062 3.31885C36.8662 2.99989 36.4859 2.72675 36.075 2.50635C35.7072 2.8121 35.3815 3.16516 35.1062 3.55635C34.475 4.35635 33.7625 5.26885 32.7063 5.49385C31.6313 5.7251 30.6 5.1751 29.6875 4.69385C29.2871 4.45649 28.8588 4.26965 28.4125 4.1376C28.1161 4.51208 27.8702 4.92395 27.6813 5.3626C27.2313 6.28135 26.7187 7.3251 25.7312 7.76885C24.7312 8.21885 23.6125 7.9001 22.625 7.6251C22.1725 7.46506 21.6984 7.37445 21.2188 7.35635C21.03 7.78528 20.8896 8.23387 20.8 8.69385C20.5437 9.69385 20.2625 10.8188 19.3875 11.4626C18.5063 12.1063 17.3438 12.0313 16.3188 11.9626C15.8427 11.9035 15.3605 11.914 14.8875 11.9938C14.7857 12.4534 14.7375 12.9232 14.7437 13.3938C14.7063 14.4251 14.6625 15.5876 13.9313 16.4001C13.2063 17.2126 12.0562 17.3751 11.0437 17.5251C10.5625 17.5606 10.0899 17.6724 9.64375 17.8563C9.64295 18.3271 9.69324 18.7965 9.79375 19.2563C9.96875 20.2688 10.1625 21.4188 9.61875 22.3626C9.075 23.3063 7.9875 23.7063 7.025 24.0626C6.56045 24.2007 6.11989 24.4094 5.71875 24.6814C5.81539 25.1398 5.9621 25.5862 6.15625 26.0126C6.5375 26.9688 6.96875 28.0563 6.63125 29.0938C6.3 30.1251 5.31875 30.7501 4.45625 31.2938C4.02738 31.5254 3.63899 31.8252 3.30625 32.1814C3.49504 32.6077 3.72976 33.0122 4.00625 33.3876C4.575 34.2438 5.225 35.2188 5.1125 36.3064C5 37.3813 4.175 38.1938 3.45 38.9063C3.07402 39.2245 2.75305 39.6025 2.5 40.0251C2.76964 40.4205 3.08892 40.7797 3.45 41.0938C4.175 41.8063 5 42.6188 5.1125 43.6938C5.225 44.7813 4.575 45.7563 4.00625 46.6126C3.71247 46.9949 3.48048 47.4209 3.31875 47.8751C3.66325 48.1967 4.04515 48.4758 4.45625 48.7063C5.31875 49.2501 6.3 49.8751 6.63125 50.9063C6.96875 51.9438 6.5375 53.0313 6.15625 53.9876C5.94823 54.4239 5.80908 54.8899 5.74375 55.3688C6.14781 55.6065 6.57768 55.7974 7.025 55.9376C7.9875 56.2938 9.075 56.6938 9.61875 57.6376C10.1625 58.5813 9.9625 59.7313 9.79375 60.7438C9.67921 61.2181 9.63914 61.7073 9.675 62.1938C10.1204 62.3344 10.5791 62.4286 11.0437 62.4751C12.0562 62.6188 13.2063 62.7876 13.9313 63.6001C14.6625 64.4126 14.7063 65.5751 14.7437 66.6001C14.7285 67.0883 14.7918 67.5757 14.9312 68.0438C15.3927 68.0892 15.8577 68.0872 16.3188 68.0376C17.3375 67.9688 18.5 67.8939 19.3875 68.5376C20.2625 69.1814 20.5438 70.3063 20.7938 71.3063C20.8869 71.7722 21.0403 72.2239 21.25 72.6501C21.7187 72.6215 22.1813 72.5289 22.625 72.3751C23.6125 72.1001 24.7312 71.7813 25.7312 72.2313C26.7187 72.6751 27.2313 73.7188 27.6813 74.6376C27.8702 75.0762 28.116 75.4881 28.4125 75.8626C28.8588 75.7305 29.2871 75.5437 29.6875 75.3063C30.6 74.8251 31.6313 74.2751 32.7063 74.5063C33.7625 74.7313 34.475 75.6438 35.1062 76.4438C35.3832 76.8336 35.7088 77.1864 36.075 77.4938C36.4845 77.2737 36.8646 77.0028 37.2062 76.6876C38 76.0188 38.9 75.2688 40 75.2688C41.1 75.2688 42 76.0188 42.7938 76.6814C43.1338 77.0003 43.5141 77.2734 43.925 77.4938C44.2928 77.1881 44.6185 76.835 44.8938 76.4438C45.525 75.6438 46.2375 74.7313 47.2937 74.5063C48.3687 74.2751 49.4 74.8251 50.3125 75.3063C50.7129 75.5437 51.1412 75.7305 51.5875 75.8626C51.884 75.4881 52.1298 75.0762 52.3187 74.6376C52.7687 73.7188 53.2812 72.6751 54.2688 72.2313C55.2688 71.7813 56.3875 72.1001 57.375 72.3751C57.8274 72.5357 58.3016 72.6263 58.7812 72.6438C58.97 72.2149 59.1104 71.7663 59.2 71.3063C59.4562 70.3063 59.7375 69.1814 60.6125 68.5376C61.4938 67.8939 62.6562 67.9688 63.6813 68.0376C64.1572 68.0999 64.6398 68.0893 65.1125 68.0063C65.2143 67.5468 65.2625 67.077 65.2563 66.6063C65.2938 65.5751 65.3375 64.4126 66.0687 63.6001C66.7937 62.7876 67.9437 62.6251 68.9563 62.4751C69.4375 62.4396 69.9101 62.3278 70.3562 62.1438C70.357 61.6731 70.3068 61.2037 70.2063 60.7438C70.0312 59.7313 69.8375 58.5813 70.3812 57.6376C70.925 56.6938 72.0125 56.2938 72.975 55.9376C73.4396 55.7995 73.8801 55.5908 74.2812 55.3188C74.1846 54.8604 74.0379 54.414 73.8438 53.9876C73.4625 53.0313 73.0312 51.9438 73.3688 50.9063C73.7 49.8751 74.6813 49.2501 75.5438 48.7063C75.9726 48.4747 76.361 48.175 76.6937 47.8188C76.505 47.3925 76.2702 46.988 75.9937 46.6126C75.425 45.7563 74.775 44.7813 74.8875 43.6938C75 42.6188 75.825 41.8063 76.55 41.0938ZM40 69.3751C34.1902 69.3751 28.5108 67.6523 23.6801 64.4245C18.8494 61.1968 15.0844 56.609 12.861 51.2414C10.6377 45.8738 10.056 39.9675 11.1894 34.2693C12.3229 28.5711 15.1206 23.337 19.2287 19.2288C23.3369 15.1207 28.571 12.323 34.2692 11.1895C39.9674 10.0561 45.8737 10.6378 51.2413 12.8611C56.6089 15.0845 61.1967 18.8495 64.4244 23.6802C67.6522 28.5109 69.375 34.1903 69.375 40.0001C69.3671 47.7884 66.2697 55.2554 60.7625 60.7626C55.2553 66.2697 47.7883 69.3672 40 69.3751Z" fill="#FC785E"/>
<path d="M40 10.625C34.1902 10.625 28.5108 12.3478 23.6801 15.5756C18.8494 18.8033 15.0844 23.3911 12.8611 28.7587C10.6377 34.1263 10.056 40.0326 11.1894 45.7308C12.3229 51.429 15.1206 56.6631 19.2288 60.7713C23.3369 64.8794 28.571 67.6771 34.2692 68.8106C39.9674 69.944 45.8738 69.3623 51.2413 67.139C56.6089 64.9156 61.1967 61.1506 64.4244 56.3199C67.6522 51.4892 69.375 45.8098 69.375 40C69.3671 32.2117 66.2697 24.7447 60.7625 19.2375C55.2553 13.7303 47.7883 10.6329 40 10.625ZM40 66.875C34.6846 66.875 29.4886 65.2988 25.0691 62.3457C20.6495 59.3927 17.2049 55.1954 15.1708 50.2846C13.1366 45.3739 12.6044 39.9702 13.6414 34.7569C14.6784 29.5437 17.238 24.755 20.9965 20.9965C24.7551 17.238 29.5437 14.6784 34.757 13.6414C39.9702 12.6044 45.3739 13.1366 50.2846 15.1707C55.1954 17.2048 59.3927 20.6495 62.3458 25.0691C65.2988 29.4886 66.875 34.6846 66.875 40C66.8667 47.1252 64.0326 53.9561 58.9944 58.9944C53.9561 64.0326 47.1252 66.8667 40 66.875Z" fill="#2D4356"/>
<path d="M40 13.125C34.6846 13.125 29.4886 14.7012 25.0691 17.6543C20.6495 20.6073 17.2049 24.8046 15.1707 29.7154C13.1366 34.6261 12.6044 40.0298 13.6414 45.2431C14.6784 50.4563 17.238 55.245 20.9965 59.0035C24.7551 62.762 29.5437 65.3216 34.757 66.3586C39.9702 67.3956 45.3739 66.8634 50.2846 64.8293C55.1954 62.7952 59.3927 59.3505 62.3458 54.931C65.2988 50.5114 66.875 45.3154 66.875 40C66.8669 32.8748 64.0328 26.0437 58.9946 21.0055C53.9563 15.9672 47.1252 13.1331 40 13.125ZM56.6625 34.8375L36.4688 55.1562C36.1269 55.5026 35.7196 55.7777 35.2706 55.9654C34.8216 56.1531 34.3398 56.2498 33.8531 56.2498C33.3665 56.2498 32.8846 56.1531 32.4356 55.9654C31.9866 55.7777 31.5794 55.5026 31.2375 55.1562L22.0875 45.9562C21.1504 45.0073 20.6249 43.7274 20.6249 42.3938C20.6249 41.0601 21.1504 39.7802 22.0875 38.8313C23.0161 37.9109 24.2707 37.3945 25.5781 37.3945C26.8856 37.3945 28.1401 37.9109 29.0688 38.8313L33.85 43.6375L49.6813 27.7063C50.6128 26.7914 51.8663 26.2789 53.1719 26.2789C54.4775 26.2789 55.731 26.7914 56.6625 27.7063C57.5997 28.6564 58.1251 29.9373 58.1251 31.2719C58.1251 32.6064 57.5997 33.8874 56.6625 34.8375Z" fill="#E1EBF4"/>
<path d="M56.6626 27.7062C55.731 26.7914 54.4776 26.2788 53.172 26.2788C51.8663 26.2788 50.6129 26.7914 49.6813 27.7062L33.8501 43.6374L29.0688 38.8312C28.1402 37.9108 26.8857 37.3944 25.5782 37.3944C24.2708 37.3944 23.0162 37.9108 22.0876 38.8312C21.1505 39.7801 20.625 41.06 20.625 42.3937C20.625 43.7273 21.1505 45.0072 22.0876 45.9562L31.2376 55.1562C31.5794 55.5025 31.9867 55.7776 32.4357 55.9653C32.8847 56.153 33.3665 56.2497 33.8532 56.2497C34.3399 56.2497 34.8217 56.153 35.2707 55.9653C35.7197 55.7776 36.127 55.5025 36.4688 55.1562L56.6626 34.8374C57.5998 33.8873 58.1252 32.6064 58.1252 31.2718C58.1252 29.9372 57.5998 28.6563 56.6626 27.7062ZM54.8876 33.0749L34.6938 53.3937C34.469 53.613 34.1673 53.7358 33.8532 53.7358C33.5391 53.7358 33.2374 53.613 33.0126 53.3937L23.8626 44.1937C23.3881 43.7147 23.1219 43.0678 23.1219 42.3937C23.1219 41.7195 23.3881 41.0726 23.8626 40.5937C24.319 40.1412 24.9356 39.8874 25.5782 39.8874C26.2208 39.8874 26.8374 40.1412 27.2938 40.5937L32.9688 46.2937C33.0846 46.4105 33.2223 46.5032 33.3741 46.5665C33.5259 46.6298 33.6887 46.6624 33.8532 46.6624C34.0177 46.6624 34.1805 46.6298 34.3323 46.5665C34.4841 46.5032 34.6218 46.4105 34.7376 46.2937L51.4563 29.4687C51.9122 29.0153 52.529 28.7609 53.172 28.7609C53.8149 28.7609 54.4317 29.0153 54.8876 29.4687C55.3622 29.9488 55.6283 30.5967 55.6283 31.2718C55.6283 31.9469 55.3622 32.5948 54.8876 33.0749Z" fill="#2D4356"/>
<path d="M54.8868 33.075L34.693 53.3938C34.4682 53.6131 34.1665 53.7359 33.8524 53.7359C33.5383 53.7359 33.2366 53.6131 33.0118 53.3938L23.8618 44.1938C23.3873 43.7149 23.1211 43.068 23.1211 42.3938C23.1211 41.7196 23.3873 41.0727 23.8618 40.5938C24.3182 40.1414 24.9348 39.8875 25.5774 39.8875C26.22 39.8875 26.8367 40.1414 27.293 40.5938L32.968 46.2938C33.0838 46.4106 33.2215 46.5033 33.3733 46.5666C33.5251 46.6299 33.688 46.6625 33.8524 46.6625C34.0169 46.6625 34.1797 46.6299 34.3315 46.5666C34.4833 46.5033 34.621 46.4106 34.7368 46.2938L51.4555 29.4688C51.9114 29.0155 52.5282 28.761 53.1712 28.761C53.8141 28.761 54.4309 29.0155 54.8868 29.4688C55.3614 29.9489 55.6275 30.5968 55.6275 31.2719C55.6275 31.947 55.3614 32.5949 54.8868 33.075Z" fill="#FFDB80"/>
<path d="M77.4945 40C77.2354 40.409 76.9174 40.7776 76.5507 41.0938C75.8285 41.6858 75.2782 42.4606 74.957 43.3375C74.8838 43.0456 74.8606 42.7434 74.8882 42.4438C75.0007 41.3688 75.8257 40.5562 76.5507 39.8438C76.6882 39.7125 76.857 39.5438 77.0132 39.375C77.2084 39.5541 77.3712 39.7656 77.4945 40Z" fill="#A54B3F" fill-opacity="0.313726"/>
<path d="M9.61875 23.6126C9.075 24.5563 7.9875 24.9563 7.025 25.3126C6.74375 25.4188 6.33125 25.5688 6.04375 25.7126C5.89195 25.3841 5.78274 25.0375 5.71875 24.6814C6.11989 24.4094 6.56045 24.2007 7.025 24.0626C7.9875 23.7063 9.075 23.3063 9.61875 22.3626C9.78002 22.0766 9.88604 21.7628 9.93125 21.4376C10.0652 22.1773 9.95551 22.9405 9.61875 23.6126ZM74.2562 24.6313C74.2227 25.0042 74.1232 25.3682 73.9625 25.7063C73.6812 25.5751 73.2625 25.4188 72.975 25.3126C72.0125 24.9563 70.925 24.5563 70.3812 23.6126C70.0475 22.9418 69.9379 22.1816 70.0687 21.4438C70.114 21.7671 70.22 22.0788 70.3812 22.3626C70.925 23.3063 72.0125 23.7063 72.975 24.0626C73.4223 24.2029 73.8522 24.3937 74.2562 24.6313ZM70.25 19.0188C69.8243 18.9106 69.3922 18.8292 68.9562 18.7751C67.9437 18.6313 66.7937 18.4626 66.0687 17.6501C65.3375 16.8376 65.2938 15.6751 65.2563 14.6501C65.2715 14.1619 65.2082 13.6744 65.0687 13.2063C64.6073 13.1609 64.1423 13.163 63.6812 13.2126C62.6625 13.2813 61.5 13.3563 60.6125 12.7126C59.7375 12.0688 59.4563 10.9438 59.2063 9.94385C59.1131 9.47803 58.9597 9.02632 58.75 8.6001C58.2813 8.62874 57.8187 8.72126 57.375 8.8751C56.3875 9.1501 55.2687 9.46885 54.2687 9.01885C53.2812 8.5751 52.7687 7.53135 52.3187 6.6126C52.1298 6.17395 51.8839 5.76208 51.5875 5.3876C51.1412 5.51965 50.7129 5.70649 50.3125 5.94385C49.4 6.4251 48.3687 6.9751 47.2937 6.74385C46.2375 6.51885 45.525 5.60635 44.8937 4.80635C44.6168 4.4166 44.2912 4.06375 43.925 3.75635C43.5155 3.97646 43.1354 4.24734 42.7938 4.5626C42 5.23135 41.1 5.98135 40 5.98135C38.9 5.98135 38 5.23135 37.2062 4.56885C36.8662 4.24989 36.4859 3.97675 36.075 3.75635C35.7072 4.0621 35.3814 4.41516 35.1062 4.80635C34.475 5.60635 33.7625 6.51885 32.7062 6.74385C31.6313 6.9751 30.6 6.4251 29.6875 5.94385C29.2871 5.70649 28.8588 5.51965 28.4125 5.3876C28.1161 5.76208 27.8702 6.17395 27.6812 6.6126C27.2312 7.53135 26.7187 8.5751 25.7312 9.01885C24.7312 9.46885 23.6125 9.1501 22.625 8.8751C22.1725 8.71506 21.6984 8.62445 21.2188 8.60635C21.03 9.03528 20.8896 9.48387 20.8 9.94385C20.5437 10.9438 20.2625 12.0688 19.3875 12.7126C18.5063 13.3563 17.3438 13.2813 16.3188 13.2126C15.8427 13.1535 15.3605 13.164 14.8875 13.2438C14.7857 13.7034 14.7375 14.1732 14.7438 14.6438C14.7063 15.6751 14.6625 16.8376 13.9313 17.6501C13.2063 18.4626 12.0563 18.6251 11.0438 18.7751C10.6086 18.8207 10.1793 18.9108 9.7625 19.0438C9.67466 18.6543 9.63478 18.2555 9.64375 17.8563C10.0899 17.6724 10.5625 17.5606 11.0438 17.5251C12.0563 17.3751 13.2063 17.2126 13.9313 16.4001C14.6625 15.5876 14.7063 14.4251 14.7438 13.3938C14.7375 12.9232 14.7857 12.4534 14.8875 11.9938C15.3605 11.914 15.8427 11.9035 16.3188 11.9626C17.3438 12.0313 18.5063 12.1063 19.3875 11.4626C20.2625 10.8188 20.5437 9.69385 20.8 8.69385C20.8896 8.23387 21.03 7.78528 21.2188 7.35635C21.6984 7.37445 22.1725 7.46506 22.625 7.6251C23.6125 7.9001 24.7312 8.21885 25.7312 7.76885C26.7187 7.3251 27.2312 6.28135 27.6812 5.3626C27.8702 4.92395 28.1161 4.51208 28.4125 4.1376C28.8588 4.26965 29.2871 4.45649 29.6875 4.69385C30.6 5.1751 31.6313 5.7251 32.7062 5.49385C33.7625 5.26885 34.475 4.35635 35.1062 3.55635C35.3814 3.16516 35.7072 2.8121 36.075 2.50635C36.4859 2.72675 36.8662 2.99989 37.2062 3.31885C38 3.98135 38.9 4.73135 40 4.73135C41.1 4.73135 42 3.98135 42.7938 3.3126C43.1354 2.99734 43.5155 2.72646 43.925 2.50635C44.2912 2.81375 44.6168 3.1666 44.8937 3.55635C45.525 4.35635 46.2375 5.26885 47.2937 5.49385C48.3687 5.7251 49.4 5.1751 50.3125 4.69385C50.7129 4.45649 51.1412 4.26965 51.5875 4.1376C51.8839 4.51208 52.1298 4.92395 52.3187 5.3626C52.7687 6.28135 53.2812 7.3251 54.2687 7.76885C55.2687 8.21885 56.3875 7.9001 57.375 7.6251C57.8187 7.47126 58.2813 7.37874 58.75 7.3501C58.9597 7.77632 59.1131 8.22803 59.2063 8.69385C59.4563 9.69385 59.7375 10.8188 60.6125 11.4626C61.5 12.1063 62.6625 12.0313 63.6812 11.9626C64.1423 11.913 64.6073 11.9109 65.0687 11.9563C65.2082 12.4244 65.2715 12.9119 65.2563 13.4001C65.2938 14.4251 65.3375 15.5876 66.0687 16.4001C66.7937 17.2126 67.9437 17.3813 68.9562 17.5251C69.421 17.5716 69.8796 17.6658 70.325 17.8063C70.3653 18.2119 70.3399 18.6213 70.25 19.0188Z" fill="#F9DBD7" fill-opacity="0.188235"/>
<path d="M9.93086 58.5562C9.88558 58.2329 9.77955 57.9212 9.61836 57.6374C9.07461 56.6937 7.98711 56.2937 7.02461 55.9374C6.57729 55.7972 6.14742 55.6063 5.74336 55.3686C5.77691 54.9958 5.87637 54.6318 6.03711 54.2937C6.31836 54.4249 6.73711 54.5812 7.02461 54.6874C7.98711 55.0437 9.07461 55.4437 9.61836 56.3874C9.95213 57.0582 10.0617 57.8184 9.93086 58.5562ZM6.68711 51.0999C6.66836 51.0312 6.64961 50.9686 6.63086 50.9061C6.29961 49.8749 5.31836 49.2499 4.45586 48.7062C4.04476 48.4756 3.66286 48.1966 3.31836 47.8749C3.41073 47.5575 3.55887 47.2591 3.75586 46.9937C3.98086 47.1562 4.25586 47.3249 4.45586 47.4562C5.31836 47.9999 6.29961 48.6249 6.63086 49.6561C6.77421 50.1244 6.79359 50.6219 6.68711 51.0999ZM76.6934 47.8187C76.3606 48.1748 75.9722 48.4745 75.5434 48.7062C74.6809 49.2499 73.6996 49.8749 73.3684 50.9061C73.3496 50.9686 73.3309 51.0312 73.3121 51.0999C73.2056 50.6219 73.225 50.1244 73.3684 49.6561C73.6996 48.6249 74.6809 47.9999 75.5434 47.4562C75.7434 47.3312 76.0121 47.1562 76.2434 46.9937C76.4294 47.2474 76.5807 47.5249 76.6934 47.8187ZM74.2809 55.3187C73.8797 55.5906 73.4392 55.7993 72.9746 55.9374C72.0121 56.2937 70.9246 56.6937 70.3809 57.6374C70.2196 57.9234 70.1136 58.2372 70.0684 58.5624C69.9344 57.8227 70.0441 57.0595 70.3809 56.3874C70.9246 55.4437 72.0121 55.0437 72.9746 54.6874C73.2559 54.5812 73.6684 54.4312 73.9559 54.2874C74.1077 54.6159 74.2169 54.9625 74.2809 55.3187ZM70.3559 62.1437C69.9097 62.3276 69.4371 62.4394 68.9559 62.4749C67.9434 62.6249 66.7934 62.7874 66.0684 63.5999C65.3371 64.4124 65.2934 65.5749 65.2559 66.6062C65.2621 67.0768 65.2139 67.5466 65.1121 68.0061C64.6394 68.0891 64.1568 68.0997 63.6809 68.0374C62.6559 67.9687 61.4934 67.8937 60.6121 68.5374C59.7371 69.1812 59.4559 70.3061 59.1996 71.3061C59.11 71.7661 58.9696 72.2147 58.7809 72.6437C58.3012 72.6261 57.827 72.5355 57.3746 72.3749C56.3871 72.0999 55.2684 71.7812 54.2684 72.2312C53.2809 72.6749 52.7684 73.7186 52.3184 74.6374C52.1294 75.0761 51.8836 75.4879 51.5871 75.8624C51.1408 75.7303 50.7125 75.5435 50.3121 75.3061C49.3996 74.8249 48.3684 74.2749 47.2934 74.5061C46.2371 74.7311 45.5246 75.6437 44.8934 76.4436C44.6182 76.8348 44.2924 77.1879 43.9246 77.4936C43.5137 77.2732 43.1334 77.0001 42.7934 76.6812C41.9996 76.0187 41.0996 75.2687 39.9996 75.2687C38.8996 75.2687 37.9996 76.0186 37.2059 76.6874C36.8642 77.0027 36.4841 77.2735 36.0746 77.4936C35.7084 77.1862 35.3828 76.8334 35.1059 76.4436C34.4746 75.6437 33.7621 74.7311 32.7059 74.5061C31.6309 74.2749 30.5996 74.8249 29.6871 75.3061C29.2867 75.5435 28.8584 75.7303 28.4121 75.8624C28.1157 75.4879 27.8698 75.0761 27.6809 74.6374C27.2309 73.7186 26.7184 72.6749 25.7309 72.2312C24.7309 71.7812 23.6121 72.0999 22.6246 72.3749C22.1809 72.5287 21.7183 72.6213 21.2496 72.6499C21.0399 72.2237 20.8865 71.772 20.7934 71.3061C20.5434 70.3061 20.2621 69.1812 19.3871 68.5374C18.4996 67.8937 17.3371 67.9687 16.3184 68.0374C15.8573 68.087 15.3924 68.0891 14.9309 68.0437C14.7914 67.5756 14.7281 67.0881 14.7434 66.5999C14.7059 65.5749 14.6621 64.4124 13.9309 63.5999C13.2059 62.7874 12.0559 62.6187 11.0434 62.4749C10.5787 62.4284 10.12 62.3342 9.67461 62.1937C9.63435 61.7881 9.65967 61.3787 9.74961 60.9812C10.1753 61.0894 10.6074 61.1708 11.0434 61.2249C12.0559 61.3687 13.2059 61.5374 13.9309 62.3499C14.6621 63.1624 14.7059 64.3249 14.7434 65.3499C14.7281 65.8381 14.7914 66.3256 14.9309 66.7937C15.3924 66.8391 15.8573 66.837 16.3184 66.7874C17.3371 66.7187 18.4996 66.6437 19.3871 67.2874C20.2621 67.9312 20.5434 69.0561 20.7934 70.0561C20.8865 70.522 21.0399 70.9737 21.2496 71.3999C21.7183 71.3713 22.1809 71.2787 22.6246 71.1249C23.6121 70.8499 24.7309 70.5312 25.7309 70.9812C26.7184 71.4249 27.2309 72.4686 27.6809 73.3874C27.8698 73.8261 28.1157 74.2379 28.4121 74.6124C28.8584 74.4803 29.2867 74.2935 29.6871 74.0561C30.5996 73.5749 31.6309 73.0249 32.7059 73.2561C33.7621 73.4811 34.4746 74.3937 35.1059 75.1936C35.3828 75.5834 35.7084 75.9362 36.0746 76.2436C36.4841 76.0235 36.8642 75.7527 37.2059 75.4374C37.9996 74.7686 38.8996 74.0187 39.9996 74.0187C41.0996 74.0187 41.9996 74.7687 42.7934 75.4312C43.1334 75.7501 43.5137 76.0232 43.9246 76.2436C44.2924 75.9379 44.6182 75.5848 44.8934 75.1936C45.5246 74.3937 46.2371 73.4811 47.2934 73.2561C48.3684 73.0249 49.3996 73.5749 50.3121 74.0561C50.7125 74.2935 51.1408 74.4803 51.5871 74.6124C51.8836 74.2379 52.1294 73.8261 52.3184 73.3874C52.7684 72.4686 53.2809 71.4249 54.2684 70.9812C55.2684 70.5312 56.3871 70.8499 57.3746 71.1249C57.827 71.2855 58.3012 71.3761 58.7809 71.3937C58.9696 70.9647 59.11 70.5161 59.1996 70.0561C59.4559 69.0561 59.7371 67.9312 60.6121 67.2874C61.4934 66.6437 62.6559 66.7187 63.6809 66.7874C64.1568 66.8497 64.6394 66.8391 65.1121 66.7561C65.2139 66.2966 65.2621 65.8268 65.2559 65.3562C65.2934 64.3249 65.3371 63.1624 66.0684 62.3499C66.7934 61.5374 67.9434 61.3749 68.9559 61.2249C69.391 61.1793 69.8203 61.0892 70.2371 60.9562C70.3249 61.3457 70.3648 61.7445 70.3559 62.1437Z" fill="#A54B3F" fill-opacity="0.313726"/>
<path d="M66.875 40.0001C66.875 47.1278 64.0435 53.9636 59.0035 59.0036C53.9635 64.0436 47.1277 66.8751 40 66.8751C32.8723 66.8751 26.0365 64.0436 20.9965 59.0036C15.9565 53.9636 13.125 47.1278 13.125 40.0001C13.125 39.8126 13.125 39.6313 13.1313 39.4438C13.3101 46.4512 16.2194 53.1114 21.2388 58.0043C26.2581 62.8972 32.9904 65.6356 40 65.6356C47.0096 65.6356 53.7419 62.8972 58.7612 58.0043C63.7806 53.1114 66.6899 46.4512 66.8687 39.4438C66.875 39.6313 66.875 39.8126 66.875 40.0001Z" fill="#9FA5AA" fill-opacity="0.313726"/>
<path opacity="0.5" d="M66.875 40C66.875 40.1875 66.875 40.3687 66.8687 40.5562C66.6899 33.5489 63.7806 26.8887 58.7612 21.9958C53.7419 17.1029 47.0096 14.3645 40 14.3645C32.9904 14.3645 26.2581 17.1029 21.2388 21.9958C16.2194 26.8887 13.3101 33.5489 13.1313 40.5562C13.125 40.3687 13.125 40.1875 13.125 40C13.125 32.8723 15.9565 26.0365 20.9965 20.9965C26.0365 15.9565 32.8723 13.125 40 13.125C47.1277 13.125 53.9635 15.9565 59.0035 20.9965C64.0435 26.0365 66.875 32.8723 66.875 40Z" fill="white"/>
<path opacity="0.45" d="M54.8871 33.0749L34.6934 53.3937C34.4685 53.613 34.1669 53.7358 33.8527 53.7358C33.5386 53.7358 33.2369 53.613 33.0121 53.3937L23.8621 44.1937C23.5519 43.881 23.3282 43.4931 23.2132 43.068C23.0981 42.6428 23.0956 42.1951 23.2059 41.7687C23.3098 42.2142 23.5372 42.6215 23.8621 42.9437L33.0121 52.1437C33.2369 52.363 33.5386 52.4858 33.8527 52.4858C34.1669 52.4858 34.4685 52.363 34.6934 52.1437L54.8871 31.8249C55.212 31.5027 55.4395 31.0955 55.5434 30.6499C55.6536 31.0763 55.6511 31.5241 55.536 31.9492C55.421 32.3744 55.1974 32.7623 54.8871 33.0749Z" fill="#AD9359"/>
</svg>
